<svg xmlns="http://www.w3.org/2000/svg" xmlns:xlink="http://www.w3.org/1999/xlink" viewBox="0,0,255.99332,255.99332" width="24px" height="24px" fill-rule="nonzero"><g fill="none" fill-rule="nonzero" stroke="none" stroke-width="none" stroke-linecap="butt" stroke-linejoin="none" stroke-miterlimit="10" stroke-dasharray="" stroke-dashoffset="0" font-family="none" font-weight="none" font-size="none" text-anchor="none" style="mix-blend-mode: normal"><path transform="scale(10.66667,10.66667)" d="M21,5.25c0,1.655 -0.95094,3.08992 -2.33594,3.79492l-1.17969,0.51953c1.995,0.35 3.51563,2.09055 3.51563,4.18555c0,1.685 -0.98516,3.14508 -2.41016,3.83008l-9.31445,4.9043c-0.6,0.33 -1.29039,0.51563 -2.02539,0.51563c-2.345,0 -4.25,-1.905 -4.25,-4.25c0,-1.655 0.95094,-3.08992 2.33594,-3.79492l1.17969,-0.51953c-1.995,-0.35 -3.51562,-2.09055 -3.51562,-4.18555c0,-1.63 0.92539,-3.04977 2.27539,-3.75977l9.44922,-4.97461c0.605,-0.33 1.29539,-0.51562 2.02539,-0.51562c2.345,0 4.25,1.905 4.25,4.25z" id="strokeMainSVG" fill="#f7f7f7" stroke="#f7f7f7" stroke-width="2" stroke-linejoin="round"></path><g transform="scale(10.66667,10.66667)" fill="#000000" stroke="none" stroke-width="1" stroke-linejoin="miter"><path d="M16.75,1c-0.73,0 -1.42039,0.18562 -2.02539,0.51563l-9.44922,4.97461c-1.35,0.71 -2.27539,2.12977 -2.27539,3.75977c0,2.095 1.52063,3.83555 3.51563,4.18555l-1.17969,0.51953c-1.385,0.705 -2.33594,2.13992 -2.33594,3.79492c0,2.345 1.905,4.25 4.25,4.25c0.735,0 1.42539,-0.18563 2.02539,-0.51562l9.31445,-4.9043c1.425,-0.685 2.41016,-2.14508 2.41016,-3.83008c0,-2.095 -1.52062,-3.83555 -3.51562,-4.18555l1.17969,-0.51953c1.385,-0.705 2.33594,-2.13992 2.33594,-3.79492c0,-2.345 -1.905,-4.25 -4.25,-4.25zM10,9l5,3l-5,3z"></path></g></g></svg>